# xmcd
#
# Track frame offsets: 
#        150
#        15814
#        28175
#        44055
#        54675
#        68524
#        84506
#        99448
#        126755
#        139631
#        152061
#        160361
#        169818
#        183013
#        195122
#        209685
#        227872
#        242261
#
# Disc length: 3395 seconds
#
# Revision: 0
# Processed by: cddbd v1.5.2PL0 Copyright (c) Steve Scherf et al.
# Submitted via: ExactAudioCopy v0.99pb5
#
DISCID=e30d4112
DTITLE=Н. Брегвадзе - Романсы
DYEAR=2005
DGENRE=Country
TTITLE0=Калитка
TTITLE1=Только раз бывают в жизни встречи
TTITLE2=Отрада
TTITLE3=Не уезжай, ты мой голубчик
TTITLE4=А напоследок, я скажу
TTITLE5=Под лаской плюшевого пледа
TTITLE6=Мы оба лжем
TTITLE7=Снегурочка
TTITLE8=Не довольно ли нам пререкаться?
TTITLE9=Чайная роза
TTITLE10=Снова пою
TTITLE11=Я вас всё-таки люблю
TTITLE12=Левкои
TTITLE13=Горчит калина
TTITLE14=Вернись
TTITLE15=Я знаю вас так много лет
TTITLE16=Гаданья по белым лепесткам
TTITLE17=Караван
EXTD=
EXTT0=
EXTT1=
EXTT2=
EXTT3=
EXTT4=
EXTT5=
EXTT6=
EXTT7=
EXTT8=
EXTT9=
EXTT10=
EXTT11=
EXTT12=
EXTT13=
EXTT14=
EXTT15=
EXTT16=
EXTT17=
PLAYORDER=
